<svg xmlns="http://www.w3.org/2000/svg" viewBox="0 0 547.52 79.56"><defs><style>.cls-1{fill:#c81d49;}.cls-2{fill:#fff;}</style></defs><g id="Calque_2" data-name="Calque 2"><g id="Calque_1-2" data-name="Calque 1"><polygon class="cls-1" points="487.81 25.81 520.81 24.81 520.81 59.81 488.81 59.81 487.81 25.81"/><circle class="cls-1" cx="85.81" cy="41.81" r="16"/><path class="cls-2" d="M50.25,62.81H0V54.44H50.25a4.19,4.19,0,1,0,0-8.38H33.5A12.5,12.5,0,0,1,20.94,33.5,12.5,12.5,0,0,1,33.5,20.94H58.62v8.37H33.5a4.19,4.19,0,1,0,0,8.38H50.25A12.5,12.5,0,0,1,62.81,50.25,12.5,12.5,0,0,1,50.25,62.81Z"/><path class="cls-2" d="M99.52,58.17l11.91,21.39h-8.38L93.17,61.77a22.26,22.26,0,0,1-6.87,1A20.9,20.9,0,0,1,65.36,41.88,20.9,20.9,0,0,1,86.3,20.94a20.9,20.9,0,0,1,20.94,20.94,20.1,20.1,0,0,1-6.09,14.78C100.63,57.19,100.08,57.69,99.52,58.17ZM89,54.18l-6.87-12.3h8.38l4.84,8.76A12.64,12.64,0,0,0,95.2,33a12.56,12.56,0,0,0-21.46,8.9A12.51,12.51,0,0,0,86.3,54.44,13.92,13.92,0,0,0,89,54.18Z"/><path class="cls-2" d="M111.62,41.88V20.94H120V41.88a12.56,12.56,0,1,0,25.12,0V0h8.38V41.88a21,21,0,0,1-35.76,14.81A20.15,20.15,0,0,1,111.62,41.88Z"/><path class="cls-2" d="M169.2,62.81h-8.37V20.94h8.37Z"/><path class="cls-2" d="M207.8,62.81H178.49V20.94H207.8a20.17,20.17,0,0,1,14.82,6.12,20.15,20.15,0,0,1,6.12,14.82A20.9,20.9,0,0,1,207.8,62.81Zm-20.93-8.37H207.8a12.53,12.53,0,0,0,12.57-12.56A12.53,12.53,0,0,0,207.8,29.31H186.87Z"/><path class="cls-2" d="M242,33.5V62.81h-8.38V20.94H242l25.12,29.31V20.94h8.38V62.81h-8.38Z"/><path class="cls-2" d="M301.24,62.81A20.9,20.9,0,0,1,280.3,41.88a20.94,20.94,0,1,1,41.88,0,20.9,20.9,0,0,1-20.94,20.93Zm0-8.37A12.51,12.51,0,0,0,313.8,41.88a12.56,12.56,0,1,0-25.12,0,12.51,12.51,0,0,0,12.56,12.56Z"/><path class="cls-2" d="M335.39,37.69V79.56H327V20.94h8.37l16.75,31.4,16.75-31.4h8.38V62.81h-8.38V37.69L356.33,62.81H348Z"/><path class="cls-2" d="M415.87,62.81H386.56V20.94h29.31A12.5,12.5,0,0,1,428.43,33.5a12.18,12.18,0,0,1-3.14,8.38,12.69,12.69,0,0,1-.52,17.27A12.12,12.12,0,0,1,415.87,62.81Zm-20.94-8.37h20.94a4.19,4.19,0,1,0,0-8.38H405.4V37.69h10.47a4.19,4.19,0,1,0,0-8.38H394.93Z"/><path class="cls-2" d="M442.7,62.81h-8.38V20.94h29.31A12.51,12.51,0,0,1,476.2,33.5a12.51,12.51,0,0,1-12.57,12.56H461.8l18.58,33.5H472L449,37.69h14.65a4.19,4.19,0,1,0,0-8.38H442.7Z"/><path class="cls-2" d="M522.39,20.94v8.37h-33.5V54.44h33.5v8.37H480.52V20.94Zm25.13,25.12H499.36V37.69h48.16Z"/><rect class="cls-1" x="277.47" y="38.64" width="48.16" height="8.38"/></g></g></svg>